<svg width="17" height="15" viewBox="0 0 17 15" fill="none" xmlns="http://www.w3.org/2000/svg">
<path d="M0.298096 7.19988L4.20648 8.67401L5.73007 13.6324C5.79632 13.9675 6.19378 14.0345 6.45876 13.8335L8.64478 12.0243C8.84352 11.8233 9.17474 11.8233 9.43972 12.0243L13.3481 14.9056C13.6131 15.1066 14.0105 14.9726 14.0768 14.6375L16.9915 0.5663C17.0577 0.231271 16.7265 -0.103756 16.3953 0.0302562L0.298096 6.32881C-0.0993653 6.46282 -0.0993653 7.06587 0.298096 7.19988ZM5.53135 7.93694L13.2156 3.17953C13.3481 3.11252 13.4806 3.31354 13.3481 3.38055L7.05494 9.34407C6.85621 9.54509 6.65748 9.81311 6.65748 10.1481L6.45876 11.7563C6.45876 11.9573 6.12753 12.0243 6.06129 11.7563L5.26636 8.80802C5.06763 8.47299 5.20013 8.07096 5.53135 7.93694Z" fill="#111111"/>
</svg>
