<svg width="41" height="42" viewBox="0 0 41 42" fill="none" xmlns="http://www.w3.org/2000/svg">
<path d="M1.5 10.9019H39.332V17.8389H1.5V10.9019Z" stroke="#D1B59A" stroke-width="2" stroke-miterlimit="3.8637"/>
<path d="M17 10.9028H23.568V40.1008H17V10.9028Z" stroke="#D1B59A" stroke-width="2" stroke-miterlimit="3.8637"/>
<path d="M38.0692 17.8588H2.93115V40.0998H38.0692V17.8588Z" stroke="#D1B59A" stroke-width="2" stroke-miterlimit="3.8637"/>
<path d="M20.6789 10.7888C20.6789 10.7888 20.1419 5.75277 21.4509 3.47077C22.7599 1.18877 26.2679 -0.0542263 27.8459 2.16177C29.4239 4.37677 28.2829 9.37777 21.0979 10.8888" stroke="#D1B59A" stroke-width="2" stroke-miterlimit="3.8637"/>
<path d="M20.4938 10.7888C20.4938 10.7888 21.0308 5.75277 19.7218 3.47077C18.4128 1.18877 14.9048 -0.0542263 13.3268 2.16177C11.7488 4.37677 12.8898 9.37777 20.0748 10.8888" stroke="#D1B59A" stroke-width="2" stroke-miterlimit="3.8637"/>
</svg>
